<?xml version="1.0" standalone="no"?>
<svg version="1.0" xmlns="http://www.w3.org/2000/svg"
 width="1986.000000pt" height="1576.000000pt" viewBox="0 0 1986.000000 1576.000000"
 preserveAspectRatio="xMidYMid meet">

<g transform="translate(0.000000,1576.000000) scale(0.100000,-0.100000)"
fill="#2275A4" stroke="none">
<path d="M14846 15058 c-7 -18 -73 -206 -146 -418 -73 -212 -136 -388 -139
-392 -4 -5 -56 3 -116 17 -124 28 -483 89 -620 104 -716 82 -1757 82 -2575 0
-756 -75 -1587 -250 -2242 -469 -927 -311 -2115 -852 -2883 -1313 -202 -121
-443 -280 -571 -378 l-105 -79 -405 289 c-343 246 -408 289 -427 282 -33 -12
-327 -427 -327 -462 0 -22 10 -35 45 -59 25 -17 45 -35 45 -41 0 -5 -12 -27
-26 -49 -16 -24 -23 -46 -19 -57 3 -10 131 -107 283 -215 152 -109 516 -369
807 -578 292 -209 534 -380 539 -380 5 0 28 20 51 44 l41 44 48 -35 c34 -25
55 -33 71 -29 15 4 70 72 169 210 153 215 172 246 163 269 -4 10 -634 468
-740 538 -27 18 465 408 788 625 174 117 305 196 490 299 112 63 369 195 377
195 2 0 2 -53 0 -119 -4 -140 12 -243 65 -406 216 -669 724 -1409 1297 -1887
400 -334 785 -512 1176 -543 242 -20 655 84 996 249 176 86 264 140 390 242
392 317 635 768 773 1438 99 477 126 864 119 1710 l-5 568 396 -5 c314 -4 431
-10 566 -26 528 -65 848 -164 1177 -367 26 -16 48 -32 48 -36 0 -4 -70 -209
-155 -456 -85 -248 -155 -459 -155 -471 0 -12 11 -26 28 -35 56 -28 469 -166
499 -166 36 0 41 6 64 70 17 48 16 48 94 35 29 -5 44 -3 51 6 6 8 57 147 112
309 101 294 205 594 235 680 9 25 44 128 78 230 34 102 99 293 146 424 93 267
93 260 13 286 -44 15 -47 24 -25 77 20 46 19 66 -3 86 -23 21 -476 177 -514
177 -23 0 -32 -6 -42 -32z m-2806 -833 c0 -20 9 -206 21 -413 22 -404 21 -465
-17 -1022 -18 -272 -36 -419 -74 -610 -106 -529 -322 -928 -654 -1207 -759
-639 -1752 -668 -2531 -75 -94 72 -290 267 -378 377 -241 299 -459 737 -563
1128 -61 230 -101 357 -167 535 l-65 173 57 26 c1011 455 2150 799 3271 989
341 58 610 91 1025 127 22 2 48 4 58 5 13 2 17 -6 17 -33z"/>
<path fill="#2275A4" d="M9917 12236 c-85 -31 -144 -101 -217 -260 -41 -89 -91 -237 -111
-331 -18 -85 -16 -236 6 -320 80 -318 281 -427 785 -429 200 -1 254 8 372 61
73 33 140 104 165 176 24 71 22 208 -5 309 -79 292 -345 617 -608 740 -133 62
-299 85 -387 54z"/>
<path fill="#2275A4"  d="M10620 9843 c-223 -11 -600 -59 -740 -94 -138 -35 -196 -73 -230
-152 -51 -118 -1 -258 308 -872 319 -631 294 -578 299 -653 7 -93 -8 -141 -65
-202 -41 -44 -69 -61 -212 -126 -223 -101 -354 -178 -527 -308 -377 -282 -682
-672 -959 -1226 -242 -484 -372 -896 -425 -1350 -18 -154 -16 -418 4 -509 18
-79 61 -182 104 -244 50 -73 133 -98 186 -57 47 37 51 83 44 565 -10 608 5
790 83 1055 60 200 168 438 296 652 343 571 897 983 1592 1182 476 137 929
170 1300 96 377 -76 758 -304 1011 -606 162 -194 265 -350 405 -613 154 -291
231 -464 400 -898 56 -143 85 -178 147 -178 53 0 89 38 89 93 0 53 -64 273
-104 357 -88 188 -621 1144 -715 1283 -233 347 -513 592 -826 723 -172 72
-303 106 -525 134 -148 19 -200 33 -281 76 -101 54 -172 159 -205 304 -21 96
-30 431 -15 610 14 164 52 427 86 597 42 202 28 289 -51 339 -37 23 -47 24
-224 25 -102 0 -214 -1 -250 -3z"/>

</g>
</svg>
