<?xml version="1.0" standalone="no"?>
<!DOCTYPE svg PUBLIC "-//W3C//DTD SVG 20010904//EN"
 "http://www.w3.org/TR/2001/REC-SVG-20010904/DTD/svg10.dtd">
<svg version="1.0" xmlns="http://www.w3.org/2000/svg"
 width="512.000000pt" height="512.000000pt" viewBox="0 0 512.000000 512.000000"
 preserveAspectRatio="xMidYMid meet">
<metadata>
Created by potrace 1.16, written by Peter Selinger 2001-2019
</metadata>
<g transform="translate(0.000000,512.000000) scale(0.100000,-0.100000)"
fill="#000000" stroke="none">
<path d="M712 5100 c-18 -11 -41 -34 -52 -52 -19 -31 -20 -51 -20 -408 0 -357
1 -377 20 -408 30 -48 75 -72 140 -72 65 0 110 24 140 72 19 31 20 51 20 408
0 357 -1 377 -20 408 -30 48 -75 72 -140 72 -37 0 -66 -6 -88 -20z"/>
<path d="M3270 5097 c-72 -48 -71 -43 -70 -459 0 -337 2 -375 18 -403 30 -50
77 -75 141 -75 66 0 111 23 141 72 19 31 20 51 20 408 0 357 -1 377 -20 408
-30 49 -75 72 -141 72 -42 0 -65 -6 -89 -23z"/>
<path d="M210 4458 c-76 -29 -160 -114 -188 -191 l-22 -58 0 -1489 c0 -1489 0
-1489 21 -1545 29 -79 114 -165 192 -193 58 -22 58 -22 1042 -22 l985 0 0 160
0 160 -944 0 c-845 0 -946 2 -960 16 -14 14 -16 129 -16 1120 l0 1104 1760 0
1760 0 0 -320 0 -320 160 0 160 0 0 665 c0 656 0 665 -22 722 -29 79 -112 162
-191 191 -45 17 -80 22 -161 22 l-103 0 -6 -107 c-3 -60 -11 -125 -17 -145
-26 -89 -123 -185 -213 -209 -61 -16 -173 -7 -225 20 -54 27 -115 88 -141 139
-24 48 -41 143 -41 235 l0 67 -960 0 -960 0 0 -67 c0 -92 -17 -187 -41 -235
-26 -51 -87 -112 -141 -139 -52 -27 -164 -36 -225 -20 -90 24 -187 120 -213
209 -6 20 -14 85 -17 145 l-6 107 -106 -1 c-83 0 -118 -5 -161 -21z"/>
<path d="M640 2880 l0 -320 320 0 320 0 0 320 0 320 -320 0 -320 0 0 -320z"/>
<path d="M1600 2880 l0 -320 320 0 320 0 0 320 0 320 -320 0 -320 0 0 -320z"/>
<path d="M2560 2880 l0 -320 320 0 320 0 0 320 0 320 -320 0 -320 0 0 -320z"/>
<path d="M3588 2541 c-292 -64 -517 -194 -715 -413 -150 -167 -253 -384 -299
-624 -25 -136 -16 -405 19 -536 65 -246 170 -429 344 -601 172 -170 345 -268
591 -335 91 -24 111 -26 312 -26 201 0 221 2 312 26 249 68 429 171 601 345
186 188 302 412 353 679 25 136 16 405 -19 536 -64 242 -164 418 -334 591
-171 174 -355 279 -601 344 -85 23 -121 26 -287 29 -158 3 -205 0 -277 -15z
m502 -340 c327 -95 576 -345 672 -677 20 -68 23 -102 23 -244 0 -142 -3 -176
-23 -244 -97 -334 -345 -583 -677 -678 -69 -20 -103 -23 -245 -23 -142 0 -176
3 -245 23 -332 95 -580 344 -677 678 -20 68 -23 102 -23 244 0 142 3 176 23
244 102 354 374 611 728 690 102 23 344 16 444 -13z"/>
<path d="M3590 1897 c-72 -48 -71 -43 -70 -459 1 -414 0 -409 70 -455 33 -23
35 -23 409 -23 358 0 378 1 409 20 48 30 72 75 72 140 0 65 -24 110 -72 140
-31 19 -51 20 -300 20 l-268 0 0 268 c0 249 -1 269 -20 300 -30 49 -75 72
-141 72 -42 0 -65 -6 -89 -23z"/>
<path d="M640 1920 l0 -320 320 0 320 0 0 320 0 320 -320 0 -320 0 0 -320z"/>
<path d="M1600 1920 l0 -320 320 0 320 0 0 320 0 320 -320 0 -320 0 0 -320z"/>
</g>
</svg>
