  <svg id="svg" version="1.1" xmlns="http://www.w3.org/2000/svg" xmlns:xlink="http://www.w3.org/1999/xlink" viewBox="0, 0, 400,400"><g id="svgg"><path id="path2" d="" stroke="none" fill="#94a4cc" fill-rule="evenodd"></path><path id="path3" d="M226.627 48.118 C 226.834 48.158,227.134 48.156,227.294 48.115 C 227.453 48.073,227.283 48.040,226.917 48.042 C 226.550 48.044,226.420 48.078,226.627 48.118 M222.708 48.282 C 222.869 48.323,223.131 48.323,223.292 48.282 C 223.452 48.240,223.321 48.205,223.000 48.205 C 222.679 48.205,222.548 48.240,222.708 48.282 M175.662 65.458 L 174.583 66.583 175.708 65.505 C 176.327 64.912,176.833 64.405,176.833 64.380 C 176.833 64.257,176.664 64.413,175.662 65.458 M159.705 110.167 C 159.705 110.487,159.740 110.619,159.782 110.458 C 159.823 110.298,159.823 110.035,159.782 109.875 C 159.740 109.715,159.705 109.846,159.705 110.167 " stroke="none" fill="#9caccc" fill-rule="evenodd"></path><path id="path4" d="M253.542 98.792 C 257.644 98.816,264.356 98.816,268.458 98.792 C 272.560 98.767,269.204 98.746,261.000 98.746 C 252.796 98.746,249.440 98.767,253.542 98.792 M159.709 108.750 C 159.711 109.117,159.745 109.247,159.785 109.040 C 159.824 108.832,159.823 108.532,159.781 108.373 C 159.739 108.214,159.707 108.383,159.709 108.750 M159.580 131.250 C 159.580 141.242,159.600 145.354,159.625 140.388 C 159.649 135.422,159.649 127.247,159.625 122.221 C 159.600 117.195,159.580 121.258,159.580 131.250 M225.381 116.583 C 225.382 117.042,225.415 117.209,225.453 116.956 C 225.491 116.703,225.490 116.328,225.451 116.123 C 225.411 115.918,225.380 116.125,225.381 116.583 M141.708 200.125 L 159.500 200.168 159.542 276.042 L 159.584 351.917 159.584 276.000 L 159.583 200.083 141.750 200.082 L 123.917 200.081 141.708 200.125 M236.458 200.125 C 242.623 200.149,252.710 200.149,258.875 200.125 C 265.040 200.101,259.996 200.081,247.667 200.081 C 235.338 200.081,230.294 200.101,236.458 200.125 " stroke="none" fill="#7990b7" fill-rule="evenodd"></path><path id="path0" d="M226.500 48.110 C 184.039 49.918,164.002 66.496,160.261 102.917 C 159.763 107.767,159.670 112.103,159.668 130.625 L 159.667 149.333 141.833 149.333 L 124.000 149.333 124.000 174.667 L 124.000 200.000 141.833 200.000 L 159.667 200.000 159.667 276.000 L 159.667 352.000 192.500 352.000 L 225.333 352.000 225.333 276.000 L 225.333 200.000 247.667 200.000 C 265.422 200.000,270.000 199.957,270.001 199.792 C 270.002 199.677,270.264 197.371,270.585 194.667 C 270.906 191.963,271.279 188.775,271.415 187.583 C 271.630 185.704,272.163 181.202,273.083 173.500 C 273.613 169.066,274.497 161.588,274.906 158.083 C 275.141 156.067,275.447 153.479,275.587 152.333 C 275.726 151.188,275.863 150.044,275.891 149.792 L 275.942 149.333 250.631 149.333 L 225.319 149.333 225.378 131.458 C 225.442 111.926,225.427 112.254,226.438 109.083 C 228.082 103.927,231.651 101.007,237.930 99.678 C 242.167 98.781,242.078 98.785,259.625 98.714 L 276.000 98.647 276.000 73.324 L 276.000 48.000 251.792 48.032 C 238.477 48.050,227.096 48.085,226.500 48.110 " stroke="none" fill="#fbfbfb" fill-rule="evenodd"></path><path id="path1" d="M189.000 0.180 C 177.554 0.827,165.320 2.568,154.583 5.077 C 154.033 5.206,153.096 5.425,152.500 5.564 C 151.904 5.704,150.817 5.977,150.083 6.172 C 149.350 6.367,148.225 6.663,147.583 6.831 C 146.299 7.166,143.520 7.959,141.833 8.471 C 139.006 9.329,134.551 10.802,133.891 11.098 C 133.603 11.227,133.295 11.333,133.207 11.333 C 133.044 11.333,128.350 13.053,127.750 13.332 C 127.567 13.418,126.704 13.762,125.833 14.096 C 124.962 14.431,124.025 14.803,123.750 14.922 C 123.475 15.042,122.162 15.607,120.833 16.178 C 114.020 19.106,106.812 22.694,101.167 25.968 C 100.296 26.473,99.433 26.969,99.250 27.072 C 97.793 27.884,94.739 29.757,94.694 29.865 C 94.664 29.939,94.538 30.000,94.415 30.000 C 94.291 30.000,94.091 30.096,93.970 30.214 C 93.849 30.332,93.376 30.645,92.919 30.911 C 92.462 31.176,92.012 31.454,91.919 31.527 C 91.826 31.601,90.362 32.586,88.667 33.715 C 86.157 35.386,82.197 38.154,81.417 38.782 C 81.325 38.856,80.650 39.361,79.917 39.904 C 78.069 41.273,74.304 44.222,72.991 45.329 C 72.390 45.836,71.537 46.550,71.094 46.917 C 67.557 49.846,62.535 54.461,58.582 58.415 C 54.472 62.525,49.878 67.518,46.917 71.094 C 46.550 71.537,45.836 72.390,45.329 72.991 C 44.222 74.304,41.273 78.069,39.904 79.917 C 39.361 80.650,38.856 81.325,38.782 81.417 C 38.154 82.197,35.386 86.157,33.715 88.667 C 32.586 90.362,31.601 91.826,31.527 91.919 C 31.454 92.012,31.177 92.462,30.913 92.919 C 30.649 93.376,30.386 93.787,30.328 93.833 C 30.239 93.904,28.045 97.548,27.166 99.083 C 27.009 99.358,26.447 100.332,25.917 101.246 C 22.632 106.920,19.132 113.959,16.178 120.833 C 15.607 122.162,15.042 123.475,14.922 123.750 C 14.802 124.025,14.428 124.962,14.092 125.833 C 13.755 126.704,13.411 127.567,13.328 127.750 C 13.032 128.403,11.333 133.051,11.333 133.207 C 11.333 133.295,11.227 133.603,11.098 133.891 C 10.802 134.551,9.329 139.006,8.471 141.833 C 7.959 143.520,7.166 146.299,6.831 147.583 C 6.663 148.225,6.367 149.350,6.172 150.083 C 5.843 151.324,5.685 151.974,5.078 154.583 C -0.627 179.139,-1.609 205.463,2.240 230.667 C 2.970 235.448,3.974 240.661,5.078 245.417 C 5.685 248.026,5.843 248.676,6.172 249.917 C 6.367 250.650,6.663 251.775,6.831 252.417 C 7.875 256.414,10.424 264.592,11.099 266.109 C 11.228 266.397,11.333 266.705,11.333 266.793 C 11.333 266.956,13.053 271.650,13.332 272.250 C 13.418 272.433,13.762 273.296,14.096 274.167 C 14.431 275.037,14.803 275.975,14.922 276.250 C 15.042 276.525,15.607 277.837,16.178 279.167 C 19.116 286.002,22.302 292.410,25.833 298.583 C 26.410 299.592,26.966 300.567,27.070 300.750 C 27.745 301.948,30.242 306.098,30.328 306.167 C 30.385 306.212,30.649 306.624,30.913 307.081 C 31.177 307.538,31.454 307.988,31.527 308.081 C 31.601 308.174,32.590 309.644,33.724 311.348 C 34.859 313.052,36.273 315.119,36.866 315.941 C 37.459 316.764,38.125 317.695,38.347 318.010 C 38.569 318.326,38.788 318.621,38.834 318.667 C 38.881 318.712,39.362 319.350,39.904 320.083 C 41.259 321.918,44.212 325.689,45.327 327.009 C 45.835 327.610,46.550 328.463,46.917 328.906 C 52.914 336.147,62.848 346.161,69.826 352.000 C 70.319 352.412,70.954 352.948,71.236 353.189 C 73.058 354.745,74.352 355.802,76.333 357.348 C 78.893 359.346,81.182 361.088,81.917 361.596 C 82.192 361.786,83.123 362.453,83.986 363.077 C 84.848 363.702,86.948 365.141,88.652 366.276 C 90.356 367.410,91.826 368.399,91.919 368.473 C 92.012 368.546,92.462 368.824,92.919 369.089 C 93.376 369.355,93.849 369.668,93.970 369.786 C 94.091 369.904,94.291 370.000,94.415 370.000 C 94.538 370.000,94.664 370.061,94.694 370.135 C 94.741 370.248,98.107 372.306,99.289 372.943 C 99.494 373.054,100.357 373.552,101.206 374.050 C 102.055 374.547,103.350 375.276,104.083 375.669 C 104.817 376.062,105.829 376.609,106.333 376.885 C 107.417 377.476,113.683 380.608,115.000 381.217 C 117.437 382.342,118.604 382.863,120.833 383.821 C 122.162 384.393,123.475 384.958,123.750 385.078 C 124.025 385.198,124.962 385.573,125.833 385.911 C 126.704 386.250,127.642 386.624,127.917 386.743 C 128.617 387.047,134.056 388.995,136.917 389.967 C 139.745 390.929,144.843 392.457,147.583 393.164 C 148.225 393.329,149.350 393.626,150.083 393.823 C 150.817 394.020,151.942 394.301,152.583 394.446 C 153.225 394.591,154.200 394.819,154.750 394.952 C 156.339 395.336,157.569 395.599,160.333 396.144 C 161.754 396.425,163.292 396.734,163.750 396.832 C 164.208 396.930,165.333 397.127,166.250 397.270 C 167.167 397.414,168.592 397.637,169.417 397.766 C 172.306 398.220,174.437 398.502,176.833 398.747 C 178.162 398.883,179.887 399.073,180.667 399.170 C 182.278 399.369,185.124 399.579,189.833 399.847 C 193.719 400.069,211.176 399.952,213.417 399.689 C 214.242 399.593,215.967 399.434,217.250 399.336 C 224.604 398.777,232.814 397.587,241.333 395.844 C 242.754 395.553,244.142 395.247,244.417 395.163 C 244.692 395.078,245.629 394.847,246.500 394.648 C 247.953 394.316,249.251 393.991,252.417 393.168 C 256.359 392.143,264.588 389.578,266.109 388.901 C 266.397 388.772,266.703 388.667,266.788 388.667 C 266.949 388.667,271.665 386.948,272.250 386.676 C 272.433 386.591,273.296 386.245,274.167 385.908 C 275.037 385.572,275.975 385.198,276.250 385.078 C 276.525 384.959,277.575 384.512,278.583 384.085 C 279.592 383.659,280.754 383.156,281.167 382.967 C 281.579 382.779,282.329 382.438,282.833 382.209 C 283.337 381.980,284.237 381.568,284.833 381.294 C 286.266 380.634,292.503 377.520,293.667 376.885 C 294.171 376.609,295.183 376.062,295.917 375.667 C 296.650 375.273,297.962 374.537,298.833 374.032 C 299.704 373.527,300.567 373.031,300.750 372.928 C 301.814 372.335,306.097 369.760,306.167 369.672 C 306.212 369.615,306.624 369.351,307.081 369.087 C 307.538 368.823,307.988 368.546,308.081 368.473 C 308.174 368.399,309.644 367.410,311.348 366.276 C 313.052 365.141,315.152 363.702,316.014 363.077 C 316.877 362.453,317.808 361.786,318.083 361.595 C 319.598 360.545,325.171 356.221,327.009 354.671 C 327.610 354.165,328.463 353.450,328.906 353.083 C 336.189 347.051,346.334 336.985,352.000 330.168 C 352.412 329.671,352.863 329.147,353.000 329.001 C 353.137 328.856,353.700 328.178,354.250 327.494 C 354.800 326.810,355.331 326.175,355.431 326.083 C 355.776 325.764,360.698 319.377,361.595 318.083 C 361.786 317.808,362.453 316.877,363.077 316.014 C 363.702 315.152,365.141 313.052,366.276 311.348 C 367.410 309.644,368.399 308.174,368.473 308.081 C 368.546 307.988,368.823 307.538,369.087 307.081 C 369.351 306.624,369.615 306.212,369.672 306.167 C 369.760 306.097,372.335 301.814,372.928 300.750 C 373.031 300.567,373.527 299.704,374.032 298.833 C 374.537 297.962,375.273 296.650,375.667 295.917 C 376.062 295.183,376.609 294.171,376.885 293.667 C 377.520 292.503,380.634 286.266,381.294 284.833 C 381.568 284.237,381.980 283.337,382.209 282.833 C 382.438 282.329,382.779 281.579,382.967 281.167 C 383.156 280.754,383.659 279.592,384.085 278.583 C 384.512 277.575,384.959 276.525,385.078 276.250 C 385.198 275.975,385.572 275.037,385.908 274.167 C 386.245 273.296,386.591 272.433,386.676 272.250 C 386.948 271.665,388.667 266.949,388.667 266.788 C 388.667 266.703,388.772 266.397,388.901 266.109 C 389.578 264.588,392.143 256.359,393.168 252.417 C 393.991 249.251,394.316 247.953,394.648 246.500 C 394.847 245.629,395.079 244.692,395.163 244.417 C 395.247 244.142,395.618 242.379,395.987 240.500 C 396.357 238.621,396.737 236.708,396.832 236.250 C 397.340 233.801,398.364 226.838,398.743 223.250 C 398.879 221.967,399.069 220.242,399.165 219.417 C 400.613 207.022,400.210 186.399,398.253 172.667 C 397.382 166.555,395.737 157.462,395.163 155.583 C 395.078 155.308,394.847 154.371,394.648 153.500 C 394.316 152.047,393.991 150.749,393.168 147.583 C 392.143 143.641,389.578 135.412,388.901 133.891 C 388.772 133.603,388.667 133.276,388.667 133.167 C 388.667 133.057,388.562 132.731,388.435 132.442 C 388.307 132.153,387.923 131.129,387.582 130.167 C 387.241 129.204,386.864 128.192,386.744 127.917 C 386.624 127.642,386.250 126.704,385.911 125.833 C 385.573 124.962,385.198 124.025,385.078 123.750 C 384.959 123.475,384.512 122.425,384.085 121.417 C 383.659 120.408,383.156 119.246,382.967 118.833 C 382.779 118.421,382.438 117.671,382.210 117.167 C 379.838 111.930,376.598 105.591,374.032 101.167 C 373.527 100.296,373.031 99.433,372.928 99.250 C 372.116 97.793,370.243 94.739,370.135 94.694 C 370.061 94.664,370.000 94.538,370.000 94.415 C 370.000 94.291,369.904 94.091,369.786 93.970 C 369.668 93.849,369.355 93.376,369.089 92.919 C 368.824 92.462,368.546 92.012,368.473 91.919 C 368.399 91.826,367.410 90.356,366.276 88.652 C 365.141 86.948,363.702 84.848,363.077 83.986 C 362.453 83.123,361.786 82.192,361.596 81.917 C 360.645 80.542,356.111 74.699,354.671 72.991 C 354.164 72.390,353.450 71.537,353.083 71.094 C 352.366 70.228,352.104 69.924,349.988 67.500 C 344.355 61.048,335.336 52.242,328.906 46.917 C 328.463 46.550,327.610 45.835,327.009 45.327 C 325.689 44.212,321.918 41.259,320.083 39.904 C 319.350 39.362,318.712 38.881,318.667 38.834 C 318.621 38.788,318.326 38.569,318.010 38.347 C 317.695 38.125,316.764 37.459,315.941 36.866 C 315.119 36.273,313.052 34.859,311.348 33.724 C 309.644 32.590,308.174 31.601,308.081 31.527 C 307.988 31.454,307.538 31.177,307.081 30.913 C 306.624 30.649,306.212 30.386,306.167 30.328 C 306.095 30.239,302.446 28.041,300.917 27.166 C 300.642 27.009,299.442 26.320,298.250 25.634 C 292.687 22.434,285.915 19.079,279.167 16.179 C 277.837 15.607,276.525 15.042,276.250 14.922 C 275.975 14.802,275.037 14.428,274.167 14.092 C 273.296 13.755,272.433 13.409,272.250 13.324 C 271.665 13.052,266.949 11.333,266.788 11.333 C 266.703 11.333,266.397 11.226,266.109 11.096 C 265.820 10.965,264.608 10.543,263.417 10.159 C 262.225 9.775,261.100 9.400,260.917 9.326 C 260.733 9.252,259.908 8.994,259.083 8.752 C 258.258 8.510,257.396 8.248,257.167 8.168 C 256.938 8.089,256.150 7.860,255.417 7.660 C 254.683 7.460,253.746 7.194,253.333 7.070 C 252.921 6.946,252.283 6.774,251.917 6.688 C 251.550 6.602,250.650 6.371,249.917 6.175 C 249.183 5.979,248.096 5.705,247.500 5.567 C 246.904 5.429,245.967 5.206,245.417 5.073 C 243.994 4.728,238.981 3.666,237.500 3.395 C 233.838 2.727,230.028 2.112,227.333 1.753 C 226.371 1.625,225.246 1.475,224.833 1.420 C 221.773 1.012,215.281 0.443,210.583 0.170 C 207.343 -0.017,192.370 -0.011,189.000 0.180 M275.959 73.375 L 275.917 98.750 259.083 98.850 C 249.825 98.905,242.063 98.995,241.833 99.050 C 241.604 99.106,240.667 99.273,239.750 99.423 C 231.903 100.705,227.741 103.992,226.251 110.083 C 225.478 113.247,225.460 113.699,225.383 131.958 L 225.309 149.333 250.654 149.333 C 264.595 149.333,276.000 149.371,276.000 149.417 C 276.000 149.534,275.388 154.810,275.083 157.333 C 274.944 158.479,274.722 160.354,274.590 161.500 C 274.458 162.646,274.193 164.896,274.001 166.500 C 273.810 168.104,273.509 170.654,273.332 172.167 C 273.154 173.679,272.891 175.892,272.747 177.083 C 272.602 178.275,272.380 180.150,272.252 181.250 C 271.901 184.284,271.363 188.848,271.095 191.083 C 270.962 192.183,270.700 194.396,270.512 196.000 C 270.325 197.604,270.126 199.198,270.071 199.542 L 269.971 200.167 247.652 200.167 L 225.333 200.167 225.333 276.083 L 225.333 352.000 192.417 352.000 L 159.500 352.000 159.500 276.083 L 159.500 200.167 141.750 200.167 L 124.000 200.167 124.000 174.750 L 124.000 149.333 141.735 149.333 L 159.471 149.333 159.544 129.208 C 159.622 107.819,159.657 106.765,160.509 100.083 C 164.232 70.858,180.010 54.598,209.417 49.680 C 218.796 48.112,220.215 48.055,250.709 48.025 L 276.001 48.000 275.959 73.375 " stroke="none" fill="#44639c" fill-rule="evenodd"></path><path id="path2" d="" stroke="none" fill="#94a4cc" fill-rule="evenodd"></path><path id="path3" d="M226.627 48.118 C 226.834 48.158,227.134 48.156,227.294 48.115 C 227.453 48.073,227.283 48.040,226.917 48.042 C 226.550 48.044,226.420 48.078,226.627 48.118 M222.708 48.282 C 222.869 48.323,223.131 48.323,223.292 48.282 C 223.452 48.240,223.321 48.205,223.000 48.205 C 222.679 48.205,222.548 48.240,222.708 48.282 M175.662 65.458 L 174.583 66.583 175.708 65.505 C 176.327 64.912,176.833 64.405,176.833 64.380 C 176.833 64.257,176.664 64.413,175.662 65.458 M159.705 110.167 C 159.705 110.487,159.740 110.619,159.782 110.458 C 159.823 110.298,159.823 110.035,159.782 109.875 C 159.740 109.715,159.705 109.846,159.705 110.167 " stroke="none" fill="#9caccc" fill-rule="evenodd"></path><path id="path4" d="M253.542 98.792 C 257.644 98.816,264.356 98.816,268.458 98.792 C 272.560 98.767,269.204 98.746,261.000 98.746 C 252.796 98.746,249.440 98.767,253.542 98.792 M159.709 108.750 C 159.711 109.117,159.745 109.247,159.785 109.040 C 159.824 108.832,159.823 108.532,159.781 108.373 C 159.739 108.214,159.707 108.383,159.709 108.750 M159.580 131.250 C 159.580 141.242,159.600 145.354,159.625 140.388 C 159.649 135.422,159.649 127.247,159.625 122.221 C 159.600 117.195,159.580 121.258,159.580 131.250 M225.381 116.583 C 225.382 117.042,225.415 117.209,225.453 116.956 C 225.491 116.703,225.490 116.328,225.451 116.123 C 225.411 115.918,225.380 116.125,225.381 116.583 M141.708 200.125 L 159.500 200.168 159.542 276.042 L 159.584 351.917 159.584 276.000 L 159.583 200.083 141.750 200.082 L 123.917 200.081 141.708 200.125 M236.458 200.125 C 242.623 200.149,252.710 200.149,258.875 200.125 C 265.040 200.101,259.996 200.081,247.667 200.081 C 235.338 200.081,230.294 200.101,236.458 200.125 " stroke="none" fill="#7990b7" fill-rule="evenodd"></path><path id="path0" d="M226.500 48.110 C 184.039 49.918,164.002 66.496,160.261 102.917 C 159.763 107.767,159.670 112.103,159.668 130.625 L 159.667 149.333 141.833 149.333 L 124.000 149.333 124.000 174.667 L 124.000 200.000 141.833 200.000 L 159.667 200.000 159.667 276.000 L 159.667 352.000 192.500 352.000 L 225.333 352.000 225.333 276.000 L 225.333 200.000 247.667 200.000 C 265.422 200.000,270.000 199.957,270.001 199.792 C 270.002 199.677,270.264 197.371,270.585 194.667 C 270.906 191.963,271.279 188.775,271.415 187.583 C 271.630 185.704,272.163 181.202,273.083 173.500 C 273.613 169.066,274.497 161.588,274.906 158.083 C 275.141 156.067,275.447 153.479,275.587 152.333 C 275.726 151.188,275.863 150.044,275.891 149.792 L 275.942 149.333 250.631 149.333 L 225.319 149.333 225.378 131.458 C 225.442 111.926,225.427 112.254,226.438 109.083 C 228.082 103.927,231.651 101.007,237.930 99.678 C 242.167 98.781,242.078 98.785,259.625 98.714 L 276.000 98.647 276.000 73.324 L 276.000 48.000 251.792 48.032 C 238.477 48.050,227.096 48.085,226.500 48.110 " stroke="none" fill="#fbfbfb" fill-rule="evenodd"></path><path id="path1" d="M189.000 0.180 C 177.554 0.827,165.320 2.568,154.583 5.077 C 154.033 5.206,153.096 5.425,152.500 5.564 C 151.904 5.704,150.817 5.977,150.083 6.172 C 149.350 6.367,148.225 6.663,147.583 6.831 C 146.299 7.166,143.520 7.959,141.833 8.471 C 139.006 9.329,134.551 10.802,133.891 11.098 C 133.603 11.227,133.295 11.333,133.207 11.333 C 133.044 11.333,128.350 13.053,127.750 13.332 C 127.567 13.418,126.704 13.762,125.833 14.096 C 124.962 14.431,124.025 14.803,123.750 14.922 C 123.475 15.042,122.162 15.607,120.833 16.178 C 114.020 19.106,106.812 22.694,101.167 25.968 C 100.296 26.473,99.433 26.969,99.250 27.072 C 97.793 27.884,94.739 29.757,94.694 29.865 C 94.664 29.939,94.538 30.000,94.415 30.000 C 94.291 30.000,94.091 30.096,93.970 30.214 C 93.849 30.332,93.376 30.645,92.919 30.911 C 92.462 31.176,92.012 31.454,91.919 31.527 C 91.826 31.601,90.362 32.586,88.667 33.715 C 86.157 35.386,82.197 38.154,81.417 38.782 C 81.325 38.856,80.650 39.361,79.917 39.904 C 78.069 41.273,74.304 44.222,72.991 45.329 C 72.390 45.836,71.537 46.550,71.094 46.917 C 67.557 49.846,62.535 54.461,58.582 58.415 C 54.472 62.525,49.878 67.518,46.917 71.094 C 46.550 71.537,45.836 72.390,45.329 72.991 C 44.222 74.304,41.273 78.069,39.904 79.917 C 39.361 80.650,38.856 81.325,38.782 81.417 C 38.154 82.197,35.386 86.157,33.715 88.667 C 32.586 90.362,31.601 91.826,31.527 91.919 C 31.454 92.012,31.177 92.462,30.913 92.919 C 30.649 93.376,30.386 93.787,30.328 93.833 C 30.239 93.904,28.045 97.548,27.166 99.083 C 27.009 99.358,26.447 100.332,25.917 101.246 C 22.632 106.920,19.132 113.959,16.178 120.833 C 15.607 122.162,15.042 123.475,14.922 123.750 C 14.802 124.025,14.428 124.962,14.092 125.833 C 13.755 126.704,13.411 127.567,13.328 127.750 C 13.032 128.403,11.333 133.051,11.333 133.207 C 11.333 133.295,11.227 133.603,11.098 133.891 C 10.802 134.551,9.329 139.006,8.471 141.833 C 7.959 143.520,7.166 146.299,6.831 147.583 C 6.663 148.225,6.367 149.350,6.172 150.083 C 5.843 151.324,5.685 151.974,5.078 154.583 C -0.627 179.139,-1.609 205.463,2.240 230.667 C 2.970 235.448,3.974 240.661,5.078 245.417 C 5.685 248.026,5.843 248.676,6.172 249.917 C 6.367 250.650,6.663 251.775,6.831 252.417 C 7.875 256.414,10.424 264.592,11.099 266.109 C 11.228 266.397,11.333 266.705,11.333 266.793 C 11.333 266.956,13.053 271.650,13.332 272.250 C 13.418 272.433,13.762 273.296,14.096 274.167 C 14.431 275.037,14.803 275.975,14.922 276.250 C 15.042 276.525,15.607 277.837,16.178 279.167 C 19.116 286.002,22.302 292.410,25.833 298.583 C 26.410 299.592,26.966 300.567,27.070 300.750 C 27.745 301.948,30.242 306.098,30.328 306.167 C 30.385 306.212,30.649 306.624,30.913 307.081 C 31.177 307.538,31.454 307.988,31.527 308.081 C 31.601 308.174,32.590 309.644,33.724 311.348 C 34.859 313.052,36.273 315.119,36.866 315.941 C 37.459 316.764,38.125 317.695,38.347 318.010 C 38.569 318.326,38.788 318.621,38.834 318.667 C 38.881 318.712,39.362 319.350,39.904 320.083 C 41.259 321.918,44.212 325.689,45.327 327.009 C 45.835 327.610,46.550 328.463,46.917 328.906 C 52.914 336.147,62.848 346.161,69.826 352.000 C 70.319 352.412,70.954 352.948,71.236 353.189 C 73.058 354.745,74.352 355.802,76.333 357.348 C 78.893 359.346,81.182 361.088,81.917 361.596 C 82.192 361.786,83.123 362.453,83.986 363.077 C 84.848 363.702,86.948 365.141,88.652 366.276 C 90.356 367.410,91.826 368.399,91.919 368.473 C 92.012 368.546,92.462 368.824,92.919 369.089 C 93.376 369.355,93.849 369.668,93.970 369.786 C 94.091 369.904,94.291 370.000,94.415 370.000 C 94.538 370.000,94.664 370.061,94.694 370.135 C 94.741 370.248,98.107 372.306,99.289 372.943 C 99.494 373.054,100.357 373.552,101.206 374.050 C 102.055 374.547,103.350 375.276,104.083 375.669 C 104.817 376.062,105.829 376.609,106.333 376.885 C 107.417 377.476,113.683 380.608,115.000 381.217 C 117.437 382.342,118.604 382.863,120.833 383.821 C 122.162 384.393,123.475 384.958,123.750 385.078 C 124.025 385.198,124.962 385.573,125.833 385.911 C 126.704 386.250,127.642 386.624,127.917 386.743 C 128.617 387.047,134.056 388.995,136.917 389.967 C 139.745 390.929,144.843 392.457,147.583 393.164 C 148.225 393.329,149.350 393.626,150.083 393.823 C 150.817 394.020,151.942 394.301,152.583 394.446 C 153.225 394.591,154.200 394.819,154.750 394.952 C 156.339 395.336,157.569 395.599,160.333 396.144 C 161.754 396.425,163.292 396.734,163.750 396.832 C 164.208 396.930,165.333 397.127,166.250 397.270 C 167.167 397.414,168.592 397.637,169.417 397.766 C 172.306 398.220,174.437 398.502,176.833 398.747 C 178.162 398.883,179.887 399.073,180.667 399.170 C 182.278 399.369,185.124 399.579,189.833 399.847 C 193.719 400.069,211.176 399.952,213.417 399.689 C 214.242 399.593,215.967 399.434,217.250 399.336 C 224.604 398.777,232.814 397.587,241.333 395.844 C 242.754 395.553,244.142 395.247,244.417 395.163 C 244.692 395.078,245.629 394.847,246.500 394.648 C 247.953 394.316,249.251 393.991,252.417 393.168 C 256.359 392.143,264.588 389.578,266.109 388.901 C 266.397 388.772,266.703 388.667,266.788 388.667 C 266.949 388.667,271.665 386.948,272.250 386.676 C 272.433 386.591,273.296 386.245,274.167 385.908 C 275.037 385.572,275.975 385.198,276.250 385.078 C 276.525 384.959,277.575 384.512,278.583 384.085 C 279.592 383.659,280.754 383.156,281.167 382.967 C 281.579 382.779,282.329 382.438,282.833 382.209 C 283.337 381.980,284.237 381.568,284.833 381.294 C 286.266 380.634,292.503 377.520,293.667 376.885 C 294.171 376.609,295.183 376.062,295.917 375.667 C 296.650 375.273,297.962 374.537,298.833 374.032 C 299.704 373.527,300.567 373.031,300.750 372.928 C 301.814 372.335,306.097 369.760,306.167 369.672 C 306.212 369.615,306.624 369.351,307.081 369.087 C 307.538 368.823,307.988 368.546,308.081 368.473 C 308.174 368.399,309.644 367.410,311.348 366.276 C 313.052 365.141,315.152 363.702,316.014 363.077 C 316.877 362.453,317.808 361.786,318.083 361.595 C 319.598 360.545,325.171 356.221,327.009 354.671 C 327.610 354.165,328.463 353.450,328.906 353.083 C 336.189 347.051,346.334 336.985,352.000 330.168 C 352.412 329.671,352.863 329.147,353.000 329.001 C 353.137 328.856,353.700 328.178,354.250 327.494 C 354.800 326.810,355.331 326.175,355.431 326.083 C 355.776 325.764,360.698 319.377,361.595 318.083 C 361.786 317.808,362.453 316.877,363.077 316.014 C 363.702 315.152,365.141 313.052,366.276 311.348 C 367.410 309.644,368.399 308.174,368.473 308.081 C 368.546 307.988,368.823 307.538,369.087 307.081 C 369.351 306.624,369.615 306.212,369.672 306.167 C 369.760 306.097,372.335 301.814,372.928 300.750 C 373.031 300.567,373.527 299.704,374.032 298.833 C 374.537 297.962,375.273 296.650,375.667 295.917 C 376.062 295.183,376.609 294.171,376.885 293.667 C 377.520 292.503,380.634 286.266,381.294 284.833 C 381.568 284.237,381.980 283.337,382.209 282.833 C 382.438 282.329,382.779 281.579,382.967 281.167 C 383.156 280.754,383.659 279.592,384.085 278.583 C 384.512 277.575,384.959 276.525,385.078 276.250 C 385.198 275.975,385.572 275.037,385.908 274.167 C 386.245 273.296,386.591 272.433,386.676 272.250 C 386.948 271.665,388.667 266.949,388.667 266.788 C 388.667 266.703,388.772 266.397,388.901 266.109 C 389.578 264.588,392.143 256.359,393.168 252.417 C 393.991 249.251,394.316 247.953,394.648 246.500 C 394.847 245.629,395.079 244.692,395.163 244.417 C 395.247 244.142,395.618 242.379,395.987 240.500 C 396.357 238.621,396.737 236.708,396.832 236.250 C 397.340 233.801,398.364 226.838,398.743 223.250 C 398.879 221.967,399.069 220.242,399.165 219.417 C 400.613 207.022,400.210 186.399,398.253 172.667 C 397.382 166.555,395.737 157.462,395.163 155.583 C 395.078 155.308,394.847 154.371,394.648 153.500 C 394.316 152.047,393.991 150.749,393.168 147.583 C 392.143 143.641,389.578 135.412,388.901 133.891 C 388.772 133.603,388.667 133.276,388.667 133.167 C 388.667 133.057,388.562 132.731,388.435 132.442 C 388.307 132.153,387.923 131.129,387.582 130.167 C 387.241 129.204,386.864 128.192,386.744 127.917 C 386.624 127.642,386.250 126.704,385.911 125.833 C 385.573 124.962,385.198 124.025,385.078 123.750 C 384.959 123.475,384.512 122.425,384.085 121.417 C 383.659 120.408,383.156 119.246,382.967 118.833 C 382.779 118.421,382.438 117.671,382.210 117.167 C 379.838 111.930,376.598 105.591,374.032 101.167 C 373.527 100.296,373.031 99.433,372.928 99.250 C 372.116 97.793,370.243 94.739,370.135 94.694 C 370.061 94.664,370.000 94.538,370.000 94.415 C 370.000 94.291,369.904 94.091,369.786 93.970 C 369.668 93.849,369.355 93.376,369.089 92.919 C 368.824 92.462,368.546 92.012,368.473 91.919 C 368.399 91.826,367.410 90.356,366.276 88.652 C 365.141 86.948,363.702 84.848,363.077 83.986 C 362.453 83.123,361.786 82.192,361.596 81.917 C 360.645 80.542,356.111 74.699,354.671 72.991 C 354.164 72.390,353.450 71.537,353.083 71.094 C 352.366 70.228,352.104 69.924,349.988 67.500 C 344.355 61.048,335.336 52.242,328.906 46.917 C 328.463 46.550,327.610 45.835,327.009 45.327 C 325.689 44.212,321.918 41.259,320.083 39.904 C 319.350 39.362,318.712 38.881,318.667 38.834 C 318.621 38.788,318.326 38.569,318.010 38.347 C 317.695 38.125,316.764 37.459,315.941 36.866 C 315.119 36.273,313.052 34.859,311.348 33.724 C 309.644 32.590,308.174 31.601,308.081 31.527 C 307.988 31.454,307.538 31.177,307.081 30.913 C 306.624 30.649,306.212 30.386,306.167 30.328 C 306.095 30.239,302.446 28.041,300.917 27.166 C 300.642 27.009,299.442 26.320,298.250 25.634 C 292.687 22.434,285.915 19.079,279.167 16.179 C 277.837 15.607,276.525 15.042,276.250 14.922 C 275.975 14.802,275.037 14.428,274.167 14.092 C 273.296 13.755,272.433 13.409,272.250 13.324 C 271.665 13.052,266.949 11.333,266.788 11.333 C 266.703 11.333,266.397 11.226,266.109 11.096 C 265.820 10.965,264.608 10.543,263.417 10.159 C 262.225 9.775,261.100 9.400,260.917 9.326 C 260.733 9.252,259.908 8.994,259.083 8.752 C 258.258 8.510,257.396 8.248,257.167 8.168 C 256.938 8.089,256.150 7.860,255.417 7.660 C 254.683 7.460,253.746 7.194,253.333 7.070 C 252.921 6.946,252.283 6.774,251.917 6.688 C 251.550 6.602,250.650 6.371,249.917 6.175 C 249.183 5.979,248.096 5.705,247.500 5.567 C 246.904 5.429,245.967 5.206,245.417 5.073 C 243.994 4.728,238.981 3.666,237.500 3.395 C 233.838 2.727,230.028 2.112,227.333 1.753 C 226.371 1.625,225.246 1.475,224.833 1.420 C 221.773 1.012,215.281 0.443,210.583 0.170 C 207.343 -0.017,192.370 -0.011,189.000 0.180 M275.959 73.375 L 275.917 98.750 259.083 98.850 C 249.825 98.905,242.063 98.995,241.833 99.050 C 241.604 99.106,240.667 99.273,239.750 99.423 C 231.903 100.705,227.741 103.992,226.251 110.083 C 225.478 113.247,225.460 113.699,225.383 131.958 L 225.309 149.333 250.654 149.333 C 264.595 149.333,276.000 149.371,276.000 149.417 C 276.000 149.534,275.388 154.810,275.083 157.333 C 274.944 158.479,274.722 160.354,274.590 161.500 C 274.458 162.646,274.193 164.896,274.001 166.500 C 273.810 168.104,273.509 170.654,273.332 172.167 C 273.154 173.679,272.891 175.892,272.747 177.083 C 272.602 178.275,272.380 180.150,272.252 181.250 C 271.901 184.284,271.363 188.848,271.095 191.083 C 270.962 192.183,270.700 194.396,270.512 196.000 C 270.325 197.604,270.126 199.198,270.071 199.542 L 269.971 200.167 247.652 200.167 L 225.333 200.167 225.333 276.083 L 225.333 352.000 192.417 352.000 L 159.500 352.000 159.500 276.083 L 159.500 200.167 141.750 200.167 L 124.000 200.167 124.000 174.750 L 124.000 149.333 141.735 149.333 L 159.471 149.333 159.544 129.208 C 159.622 107.819,159.657 106.765,160.509 100.083 C 164.232 70.858,180.010 54.598,209.417 49.680 C 218.796 48.112,220.215 48.055,250.709 48.025 L 276.001 48.000 275.959 73.375 " stroke="none" fill="#44639c" fill-rule="evenodd"></path><path id="path2" d="" stroke="none" fill="#94a4cc" fill-rule="evenodd"></path><path id="path3" d="M226.627 48.118 C 226.834 48.158,227.134 48.156,227.294 48.115 C 227.453 48.073,227.283 48.040,226.917 48.042 C 226.550 48.044,226.420 48.078,226.627 48.118 M222.708 48.282 C 222.869 48.323,223.131 48.323,223.292 48.282 C 223.452 48.240,223.321 48.205,223.000 48.205 C 222.679 48.205,222.548 48.240,222.708 48.282 M175.662 65.458 L 174.583 66.583 175.708 65.505 C 176.327 64.912,176.833 64.405,176.833 64.380 C 176.833 64.257,176.664 64.413,175.662 65.458 M159.705 110.167 C 159.705 110.487,159.740 110.619,159.782 110.458 C 159.823 110.298,159.823 110.035,159.782 109.875 C 159.740 109.715,159.705 109.846,159.705 110.167 " stroke="none" fill="#9caccc" fill-rule="evenodd"></path><path id="path4" d="M253.542 98.792 C 257.644 98.816,264.356 98.816,268.458 98.792 C 272.560 98.767,269.204 98.746,261.000 98.746 C 252.796 98.746,249.440 98.767,253.542 98.792 M159.709 108.750 C 159.711 109.117,159.745 109.247,159.785 109.040 C 159.824 108.832,159.823 108.532,159.781 108.373 C 159.739 108.214,159.707 108.383,159.709 108.750 M159.580 131.250 C 159.580 141.242,159.600 145.354,159.625 140.388 C 159.649 135.422,159.649 127.247,159.625 122.221 C 159.600 117.195,159.580 121.258,159.580 131.250 M225.381 116.583 C 225.382 117.042,225.415 117.209,225.453 116.956 C 225.491 116.703,225.490 116.328,225.451 116.123 C 225.411 115.918,225.380 116.125,225.381 116.583 M141.708 200.125 L 159.500 200.168 159.542 276.042 L 159.584 351.917 159.584 276.000 L 159.583 200.083 141.750 200.082 L 123.917 200.081 141.708 200.125 M236.458 200.125 C 242.623 200.149,252.710 200.149,258.875 200.125 C 265.040 200.101,259.996 200.081,247.667 200.081 C 235.338 200.081,230.294 200.101,236.458 200.125 " stroke="none" fill="#7990b7" fill-rule="evenodd"></path></g></svg>
