<svg id="svg" version="1.1" xmlns="http://www.w3.org/2000/svg" xmlns:xlink="http://www.w3.org/1999/xlink" width="400" height="417.80250347705146" viewBox="0, 0, 400,417.80250347705146"><g id="svgg"><path id="path0" d="M197.497 25.140 C 195.559 25.536,193.373 26.659,191.901 28.013 C 189.952 29.808,179.910 39.491,171.768 47.427 C 166.225 52.831,163.968 54.864,162.031 56.202 C 161.266 56.731,160.577 57.240,160.501 57.334 C 160.424 57.428,160.080 57.593,159.736 57.700 C 159.392 57.808,159.110 58.012,159.110 58.155 C 159.110 58.298,158.867 58.414,158.570 58.414 C 158.273 58.414,157.959 58.529,157.873 58.669 C 157.683 58.976,155.442 60.083,155.011 60.083 C 154.842 60.083,154.350 60.257,153.917 60.470 C 152.731 61.052,151.324 61.506,149.930 61.757 C 149.242 61.881,148.321 62.121,147.884 62.289 C 146.624 62.775,135.685 62.685,133.797 62.174 C 132.955 61.946,131.641 61.756,130.876 61.752 C 130.111 61.749,128.797 61.561,127.955 61.335 C 127.114 61.109,125.800 60.922,125.035 60.918 C 124.270 60.914,122.955 60.727,122.114 60.501 C 121.273 60.275,119.933 60.089,119.137 60.087 C 118.342 60.085,116.970 59.896,116.089 59.666 C 115.208 59.437,113.816 59.249,112.997 59.249 C 112.178 59.249,111.269 59.122,110.979 58.966 C 110.688 58.811,109.288 58.568,107.868 58.426 C 106.447 58.285,104.659 58.044,103.894 57.891 C 101.679 57.448,97.077 57.512,96.143 57.999 C 95.705 58.227,95.126 58.414,94.856 58.414 C 94.586 58.414,94.210 58.602,94.019 58.832 C 93.829 59.061,93.520 59.249,93.333 59.249 C 93.145 59.249,92.691 59.507,92.324 59.822 C 90.322 61.539,89.847 62.011,89.847 62.285 C 89.847 62.451,89.727 62.587,89.579 62.587 C 89.115 62.587,87.344 66.620,87.344 67.676 C 87.344 68.225,87.228 68.745,87.087 68.832 C 86.946 68.919,86.750 69.834,86.651 70.865 C 86.552 71.896,86.356 73.053,86.216 73.435 C 86.077 73.818,85.838 75.007,85.686 76.078 C 85.416 77.989,85.007 80.413,84.163 85.118 C 83.929 86.419,83.607 88.392,83.446 89.503 C 83.286 90.614,83.033 91.843,82.885 92.233 C 82.736 92.624,82.615 93.416,82.615 93.993 C 82.615 94.571,82.428 95.658,82.201 96.409 C 81.973 97.160,81.786 98.150,81.786 98.609 C 81.785 99.362,81.389 101.369,80.632 104.451 C 80.481 105.063,80.252 106.001,80.123 106.537 C 79.816 107.806,79.294 109.273,78.821 110.196 C 78.613 110.602,78.442 111.080,78.442 111.259 C 78.442 111.437,78.255 111.771,78.025 112.001 C 77.796 112.230,77.608 112.659,77.608 112.955 C 77.608 113.250,77.483 113.491,77.330 113.491 C 77.177 113.491,77.051 113.632,77.051 113.804 C 77.051 113.976,76.540 114.883,75.916 115.820 C 72.376 121.132,67.683 125.404,62.254 128.257 C 61.841 128.473,60.589 129.139,59.472 129.735 C 58.355 130.331,56.690 131.197,55.772 131.661 C 54.854 132.124,54.040 132.580,53.964 132.673 C 53.887 132.766,53.168 133.149,52.364 133.524 C 51.561 133.900,50.904 134.302,50.904 134.419 C 50.904 134.536,50.669 134.631,50.382 134.631 C 50.095 134.631,49.704 134.819,49.513 135.049 C 49.323 135.278,48.957 135.466,48.700 135.466 C 48.444 135.466,48.109 135.591,47.956 135.743 C 47.711 135.988,45.850 137.000,41.725 139.131 C 41.036 139.486,40.410 139.840,40.334 139.916 C 40.257 139.993,39.193 140.547,37.969 141.148 C 36.745 141.749,35.682 142.312,35.605 142.400 C 35.529 142.487,34.590 142.991,33.519 143.520 C 29.894 145.307,27.475 147.505,26.157 150.209 C 25.821 150.897,25.431 151.678,25.291 151.943 C 24.962 152.563,24.955 159.028,25.282 159.230 C 25.418 159.314,25.613 159.728,25.715 160.150 C 25.881 160.835,30.242 170.026,30.897 171.071 C 31.040 171.300,31.229 171.676,31.315 171.905 C 31.402 172.135,31.590 172.510,31.733 172.740 C 31.875 172.969,32.063 173.345,32.150 173.574 C 32.236 173.804,32.424 174.179,32.567 174.409 C 32.710 174.638,32.905 175.014,33.000 175.243 C 33.302 175.974,41.651 193.291,42.432 194.807 C 42.655 195.240,42.837 195.811,42.837 196.075 C 42.837 196.339,43.021 196.799,43.246 197.096 C 43.470 197.393,43.658 198.017,43.663 198.484 C 43.668 198.951,43.812 199.473,43.984 199.644 C 44.155 199.816,44.398 200.748,44.523 201.717 C 44.648 202.685,44.900 204.635,45.083 206.050 C 45.341 208.046,45.341 209.200,45.083 211.196 C 44.900 212.611,44.648 214.561,44.523 215.530 C 44.398 216.498,44.155 217.430,43.984 217.602 C 43.812 217.773,43.668 218.296,43.663 218.762 C 43.658 219.229,43.470 219.854,43.246 220.151 C 43.021 220.447,42.837 220.907,42.837 221.171 C 42.837 221.435,42.655 222.006,42.432 222.439 C 41.917 223.440,37.054 233.498,34.789 238.248 C 33.841 240.236,32.947 242.051,32.803 242.281 C 32.659 242.510,32.471 242.886,32.384 243.115 C 32.298 243.345,32.110 243.720,31.967 243.950 C 31.824 244.179,31.636 244.555,31.550 244.784 C 31.463 245.014,31.275 245.389,31.133 245.619 C 30.990 245.848,30.795 246.224,30.700 246.453 C 30.605 246.683,29.487 248.999,28.215 251.599 C 26.942 254.200,25.818 256.674,25.715 257.096 C 25.613 257.518,25.418 257.932,25.282 258.016 C 24.955 258.219,24.962 264.683,25.291 265.303 C 25.431 265.568,25.821 266.349,26.157 267.038 C 27.475 269.741,29.894 271.939,33.519 273.727 C 34.590 274.255,35.529 274.759,35.605 274.847 C 35.682 274.934,36.745 275.497,37.969 276.098 C 39.193 276.699,40.257 277.253,40.334 277.330 C 40.410 277.406,41.036 277.760,41.725 278.116 C 45.850 280.246,47.711 281.258,47.956 281.503 C 48.109 281.655,48.444 281.780,48.700 281.780 C 48.957 281.780,49.323 281.968,49.513 282.197 C 49.704 282.427,50.095 282.615,50.382 282.615 C 50.669 282.615,50.904 282.710,50.904 282.827 C 50.904 282.944,51.561 283.347,52.364 283.722 C 53.168 284.097,53.887 284.480,53.964 284.573 C 54.040 284.666,54.854 285.122,55.772 285.585 C 56.690 286.049,58.355 286.916,59.472 287.512 C 60.589 288.108,61.841 288.773,62.254 288.990 C 67.683 291.842,72.376 296.115,75.916 301.426 C 76.540 302.363,77.051 303.271,77.051 303.443 C 77.051 303.615,77.177 303.755,77.330 303.755 C 77.483 303.755,77.608 303.997,77.608 304.292 C 77.608 304.587,77.796 305.016,78.025 305.245 C 78.255 305.475,78.442 305.809,78.442 305.987 C 78.442 306.166,78.613 306.644,78.821 307.050 C 79.294 307.973,79.816 309.440,80.123 310.709 C 80.252 311.245,80.481 312.184,80.632 312.796 C 81.389 315.877,81.785 317.884,81.786 318.637 C 81.786 319.096,81.973 320.086,82.201 320.837 C 82.428 321.588,82.615 322.675,82.615 323.253 C 82.615 323.830,82.736 324.623,82.885 325.013 C 83.033 325.404,83.286 326.632,83.446 327.743 C 83.607 328.854,83.929 330.828,84.163 332.128 C 85.007 336.833,85.416 339.257,85.686 341.168 C 85.838 342.239,86.077 343.428,86.216 343.811 C 86.356 344.193,86.552 345.350,86.651 346.381 C 86.750 347.412,86.946 348.327,87.087 348.414 C 87.228 348.501,87.344 349.000,87.344 349.524 C 87.344 350.551,89.128 354.659,89.575 354.659 C 89.725 354.659,89.847 354.795,89.847 354.961 C 89.847 355.235,90.322 355.707,92.324 357.424 C 92.691 357.739,93.145 357.997,93.333 357.997 C 93.520 357.997,93.829 358.185,94.019 358.414 C 94.210 358.644,94.586 358.832,94.856 358.832 C 95.126 358.832,95.705 359.019,96.143 359.247 C 97.077 359.734,101.679 359.798,103.894 359.355 C 104.659 359.202,106.447 358.961,107.868 358.820 C 109.288 358.678,110.688 358.436,110.979 358.280 C 111.269 358.124,112.178 357.997,112.997 357.997 C 113.816 357.997,115.208 357.809,116.089 357.580 C 116.970 357.350,118.342 357.161,119.137 357.159 C 119.933 357.158,121.273 356.971,122.114 356.745 C 122.955 356.520,124.270 356.332,125.035 356.328 C 125.800 356.325,127.114 356.137,127.955 355.911 C 128.797 355.685,130.111 355.497,130.876 355.494 C 131.641 355.490,132.955 355.300,133.797 355.072 C 135.642 354.571,145.811 354.484,147.566 354.954 C 148.178 355.118,149.117 355.348,149.652 355.464 C 150.188 355.580,150.899 355.822,151.233 356.001 C 151.568 356.181,152.095 356.328,152.406 356.328 C 153.446 356.328,158.836 358.926,161.374 360.650 C 162.041 361.103,162.728 361.599,162.899 361.752 C 163.071 361.905,163.820 362.531,164.563 363.143 C 166.279 364.556,168.182 366.319,171.771 369.819 C 179.528 377.386,189.934 387.422,191.901 389.233 C 196.497 393.463,204.060 393.463,208.655 389.233 C 210.605 387.438,220.646 377.755,228.788 369.819 C 234.332 364.415,236.588 362.382,238.526 361.044 C 239.291 360.516,239.979 360.006,240.056 359.912 C 240.132 359.818,240.476 359.653,240.821 359.546 C 241.165 359.438,241.446 359.234,241.446 359.091 C 241.446 358.948,241.689 358.832,241.986 358.832 C 242.283 358.832,242.597 358.717,242.683 358.578 C 242.873 358.271,245.114 357.163,245.545 357.163 C 245.714 357.163,246.206 356.989,246.639 356.776 C 247.826 356.194,249.232 355.740,250.626 355.489 C 251.314 355.365,252.235 355.125,252.672 354.957 C 253.932 354.471,264.871 354.561,266.759 355.073 C 267.601 355.301,268.915 355.490,269.680 355.494 C 270.445 355.497,271.759 355.685,272.601 355.911 C 273.442 356.137,274.757 356.325,275.522 356.328 C 276.287 356.332,277.601 356.520,278.442 356.745 C 279.284 356.971,280.623 357.158,281.419 357.159 C 282.215 357.161,283.587 357.350,284.468 357.580 C 285.349 357.809,286.740 357.997,287.559 357.997 C 288.379 357.997,289.287 358.124,289.577 358.280 C 289.868 358.436,291.268 358.678,292.689 358.820 C 294.109 358.961,295.897 359.202,296.662 359.355 C 298.878 359.798,303.480 359.734,304.413 359.247 C 304.851 359.019,305.430 358.832,305.700 358.832 C 305.970 358.832,306.346 358.644,306.537 358.414 C 306.727 358.185,307.036 357.997,307.224 357.997 C 307.411 357.997,307.865 357.739,308.233 357.424 C 310.235 355.707,310.709 355.235,310.709 354.961 C 310.709 354.795,310.830 354.659,310.977 354.659 C 311.441 354.659,313.213 350.626,313.213 349.570 C 313.213 349.021,313.328 348.501,313.469 348.414 C 313.610 348.327,313.806 347.412,313.905 346.381 C 314.004 345.350,314.200 344.193,314.340 343.811 C 314.480 343.428,314.718 342.239,314.870 341.168 C 315.141 339.257,315.549 336.833,316.394 332.128 C 316.627 330.828,316.949 328.854,317.110 327.743 C 317.270 326.632,317.523 325.404,317.672 325.013 C 317.820 324.623,317.942 323.830,317.942 323.253 C 317.942 322.675,318.128 321.588,318.356 320.837 C 318.584 320.086,318.770 319.096,318.771 318.637 C 318.771 317.884,319.168 315.877,319.925 312.796 C 320.075 312.184,320.304 311.245,320.433 310.709 C 320.740 309.440,321.262 307.973,321.735 307.050 C 321.944 306.644,322.114 306.166,322.114 305.987 C 322.114 305.809,322.302 305.475,322.531 305.245 C 322.761 305.016,322.949 304.587,322.949 304.292 C 322.949 303.997,323.074 303.755,323.227 303.755 C 323.380 303.755,323.505 303.615,323.505 303.443 C 323.505 303.271,324.016 302.363,324.641 301.426 C 328.180 296.115,332.874 291.842,338.303 288.990 C 338.715 288.773,339.967 288.108,341.084 287.512 C 342.201 286.916,343.866 286.049,344.784 285.585 C 345.702 285.122,346.516 284.666,346.592 284.573 C 346.669 284.480,347.389 284.097,348.192 283.722 C 348.995 283.347,349.652 282.944,349.652 282.827 C 349.652 282.710,349.887 282.615,350.175 282.615 C 350.462 282.615,350.853 282.427,351.043 282.197 C 351.234 281.968,351.599 281.780,351.856 281.780 C 352.113 281.780,352.448 281.655,352.600 281.503 C 352.845 281.258,354.707 280.246,358.832 278.116 C 359.520 277.760,360.146 277.406,360.223 277.330 C 360.299 277.253,361.363 276.699,362.587 276.098 C 363.811 275.497,364.875 274.934,364.951 274.847 C 365.028 274.759,365.967 274.255,367.038 273.727 C 370.662 271.939,373.081 269.741,374.400 267.038 C 374.735 266.349,375.125 265.568,375.266 265.303 C 375.594 264.683,375.602 258.219,375.274 258.016 C 375.138 257.932,374.943 257.518,374.841 257.096 C 374.675 256.411,370.314 247.220,369.660 246.175 C 369.516 245.946,369.328 245.570,369.241 245.341 C 369.154 245.111,368.967 244.736,368.824 244.506 C 368.681 244.277,368.493 243.901,368.407 243.672 C 368.320 243.442,368.132 243.067,367.989 242.837 C 367.846 242.608,367.652 242.232,367.557 242.003 C 367.254 241.272,358.905 223.955,358.125 222.439 C 357.902 222.006,357.719 221.435,357.719 221.171 C 357.719 220.907,357.535 220.447,357.311 220.151 C 357.086 219.854,356.898 219.229,356.893 218.762 C 356.889 218.296,356.744 217.773,356.573 217.602 C 356.401 217.430,356.159 216.498,356.033 215.530 C 355.908 214.561,355.656 212.611,355.473 211.196 C 355.215 209.200,355.215 208.046,355.473 206.050 C 355.656 204.635,355.908 202.685,356.033 201.717 C 356.159 200.748,356.401 199.816,356.573 199.644 C 356.744 199.473,356.889 198.951,356.893 198.484 C 356.898 198.017,357.086 197.393,357.311 197.096 C 357.535 196.799,357.719 196.339,357.719 196.075 C 357.719 195.811,357.902 195.240,358.125 194.807 C 358.640 193.806,363.502 183.748,365.767 178.999 C 366.715 177.010,367.609 175.195,367.753 174.965 C 367.897 174.736,368.085 174.360,368.172 174.131 C 368.259 173.901,368.446 173.526,368.589 173.296 C 368.732 173.067,368.920 172.691,369.007 172.462 C 369.093 172.232,369.281 171.857,369.424 171.627 C 369.567 171.398,369.761 171.022,369.856 170.793 C 369.951 170.563,371.070 168.248,372.342 165.647 C 373.614 163.046,374.739 160.573,374.841 160.150 C 374.943 159.728,375.138 159.314,375.274 159.230 C 375.602 159.028,375.594 152.563,375.266 151.943 C 375.125 151.678,374.735 150.897,374.400 150.209 C 373.081 147.505,370.662 145.307,367.038 143.520 C 365.967 142.991,365.028 142.487,364.951 142.400 C 364.875 142.312,363.811 141.749,362.587 141.148 C 361.363 140.547,360.299 139.993,360.223 139.916 C 360.146 139.840,359.520 139.486,358.832 139.131 C 354.707 137.000,352.845 135.988,352.600 135.743 C 352.448 135.591,352.113 135.466,351.856 135.466 C 351.599 135.466,351.234 135.278,351.043 135.049 C 350.853 134.819,350.462 134.631,350.175 134.631 C 349.887 134.631,349.652 134.536,349.652 134.419 C 349.652 134.302,348.995 133.900,348.192 133.524 C 347.389 133.149,346.669 132.766,346.592 132.673 C 346.516 132.580,345.702 132.124,344.784 131.661 C 343.866 131.197,342.201 130.331,341.084 129.735 C 339.967 129.139,338.715 128.473,338.303 128.257 C 332.691 125.308,328.122 121.089,324.360 115.384 C 323.584 114.207,322.949 113.064,322.949 112.845 C 322.949 112.626,322.761 112.291,322.531 112.100 C 322.302 111.910,322.114 111.569,322.114 111.344 C 322.114 111.119,321.944 110.602,321.735 110.196 C 321.262 109.273,320.740 107.806,320.433 106.537 C 320.304 106.001,320.075 105.063,319.925 104.451 C 319.168 101.369,318.771 99.362,318.771 98.609 C 318.770 98.150,318.584 97.160,318.356 96.409 C 318.128 95.658,317.942 94.571,317.942 93.993 C 317.942 93.416,317.820 92.624,317.672 92.233 C 317.523 91.843,317.270 90.614,317.110 89.503 C 316.949 88.392,316.627 86.419,316.394 85.118 C 315.549 80.413,315.141 77.989,314.870 76.078 C 314.718 75.007,314.480 73.818,314.340 73.435 C 314.200 73.053,314.004 71.896,313.905 70.865 C 313.806 69.834,313.610 68.919,313.469 68.832 C 313.328 68.745,313.213 68.225,313.213 67.676 C 313.213 66.620,311.441 62.587,310.977 62.587 C 310.830 62.587,310.709 62.451,310.709 62.285 C 310.709 62.011,310.235 61.539,308.233 59.822 C 307.865 59.507,307.411 59.249,307.224 59.249 C 307.036 59.249,306.727 59.061,306.537 58.832 C 306.346 58.602,305.970 58.414,305.700 58.414 C 305.430 58.414,304.851 58.227,304.413 57.999 C 303.480 57.512,298.878 57.448,296.662 57.891 C 295.897 58.044,294.109 58.285,292.689 58.426 C 291.268 58.568,289.868 58.811,289.577 58.966 C 289.287 59.122,288.379 59.249,287.559 59.249 C 286.740 59.249,285.349 59.437,284.468 59.666 C 283.587 59.896,282.215 60.085,281.419 60.087 C 280.623 60.089,279.284 60.275,278.442 60.501 C 277.601 60.727,276.287 60.914,275.522 60.918 C 274.757 60.922,273.442 61.109,272.601 61.335 C 271.759 61.561,270.445 61.749,269.680 61.752 C 268.915 61.756,267.601 61.946,266.759 62.174 C 264.871 62.685,253.932 62.775,252.672 62.289 C 252.235 62.121,251.314 61.881,250.626 61.757 C 249.232 61.506,247.826 61.052,246.639 60.470 C 246.206 60.257,245.714 60.083,245.545 60.083 C 245.114 60.083,242.873 58.976,242.683 58.669 C 242.597 58.529,242.283 58.414,241.986 58.414 C 241.689 58.414,241.446 58.298,241.446 58.155 C 241.446 58.012,241.165 57.808,240.821 57.700 C 240.476 57.593,240.132 57.428,240.056 57.334 C 239.979 57.240,239.291 56.731,238.526 56.202 C 236.588 54.864,234.332 52.831,228.788 47.427 C 220.691 39.534,210.603 29.806,208.678 28.035 C 205.779 25.366,201.639 24.294,197.497 25.140 M158.693 101.802 C 160.850 102.026,162.530 102.380,164.256 102.975 C 164.715 103.133,165.466 103.328,165.925 103.408 C 166.384 103.488,167.006 103.724,167.308 103.932 C 167.610 104.141,168.045 104.312,168.276 104.312 C 168.670 104.312,173.829 106.775,174.131 107.107 C 174.207 107.191,174.958 107.677,175.800 108.187 C 176.641 108.696,177.392 109.193,177.469 109.290 C 177.545 109.387,178.046 109.822,178.581 110.257 C 179.117 110.692,180.116 111.504,180.801 112.061 C 182.419 113.376,183.739 114.696,185.118 116.377 C 185.730 117.123,186.359 117.874,186.515 118.046 C 188.132 119.827,189.727 122.161,190.291 123.574 C 190.459 123.995,190.710 124.339,190.848 124.339 C 190.986 124.339,191.099 124.581,191.099 124.876 C 191.099 125.171,191.287 125.600,191.516 125.830 C 191.745 126.059,191.933 126.420,191.933 126.631 C 191.933 126.842,192.117 127.258,192.342 127.555 C 192.566 127.852,192.754 128.303,192.759 128.559 C 192.764 128.814,192.942 129.377,193.154 129.811 C 193.729 130.983,194.194 132.407,194.413 133.668 C 194.521 134.286,194.715 134.964,194.846 135.175 C 194.977 135.386,195.181 136.383,195.300 137.390 C 196.143 144.507,196.171 145.041,195.832 147.695 C 195.646 149.154,195.401 151.172,195.288 152.179 C 195.176 153.186,194.977 154.183,194.846 154.394 C 194.715 154.605,194.521 155.283,194.413 155.901 C 194.194 157.162,193.729 158.586,193.154 159.758 C 192.942 160.191,192.768 160.690,192.768 160.866 C 192.768 161.043,192.406 161.940,191.964 162.861 C 191.522 163.781,191.082 164.722,190.987 164.951 C 190.892 165.181,190.564 165.744,190.258 166.203 C 189.952 166.662,189.626 167.257,189.533 167.524 C 189.441 167.792,189.263 168.011,189.138 168.011 C 189.013 168.011,188.827 168.275,188.725 168.598 C 188.551 169.144,187.945 169.963,186.917 171.041 C 186.683 171.287,186.001 172.114,185.401 172.879 C 184.034 174.622,182.457 176.205,180.676 177.621 C 178.822 179.095,178.021 179.751,177.466 180.250 C 176.928 180.735,176.433 181.060,174.618 182.121 C 173.891 182.545,173.297 182.987,173.297 183.102 C 173.296 183.216,173.074 183.310,172.802 183.310 C 172.530 183.310,172.060 183.474,171.759 183.675 C 171.457 183.876,170.271 184.432,169.124 184.912 C 167.255 185.693,166.288 186.022,163.047 186.984 C 157.988 188.484,143.671 188.457,141.729 186.944 C 141.573 186.823,140.909 186.642,140.252 186.542 C 139.595 186.442,138.844 186.250,138.583 186.115 C 138.322 185.981,137.545 185.660,136.857 185.403 C 136.168 185.145,135.251 184.757,134.818 184.540 C 134.384 184.322,133.868 184.145,133.669 184.145 C 133.471 184.145,133.153 183.957,132.962 183.727 C 132.772 183.498,132.381 183.310,132.094 183.310 C 131.807 183.310,131.572 183.193,131.572 183.051 C 131.572 182.908,131.321 182.712,131.015 182.615 C 128.906 181.945,121.680 175.853,119.310 172.745 C 118.787 172.059,118.171 171.298,117.942 171.054 C 117.195 170.259,116.273 169.122,116.273 168.997 C 116.273 168.929,115.912 168.335,115.472 167.677 C 114.408 166.088,112.935 163.290,112.935 162.860 C 112.935 162.671,112.747 162.360,112.517 162.170 C 112.288 161.979,112.100 161.576,112.100 161.275 C 112.100 160.973,111.930 160.393,111.721 159.987 C 111.153 158.880,110.673 157.435,110.454 156.179 C 110.347 155.561,110.152 154.883,110.022 154.672 C 109.406 153.675,108.775 145.302,109.067 142.003 C 109.573 136.293,109.694 135.675,111.123 131.433 C 111.536 130.209,111.938 128.867,112.017 128.451 C 112.096 128.035,112.335 127.551,112.548 127.374 C 112.760 127.197,112.935 126.900,112.935 126.713 C 112.935 126.527,113.246 125.822,113.626 125.148 C 114.007 124.474,114.404 123.734,114.508 123.505 C 115.572 121.168,121.225 114.313,123.799 112.239 C 124.749 111.474,125.666 110.721,125.837 110.564 C 126.630 109.840,128.694 108.273,129.068 108.112 C 129.535 107.910,130.524 107.306,130.737 107.093 C 131.082 106.748,136.218 104.312,136.601 104.312 C 136.836 104.312,137.272 104.128,137.569 103.903 C 137.866 103.679,138.421 103.486,138.804 103.476 C 139.186 103.466,139.812 103.278,140.195 103.060 C 140.577 102.841,141.203 102.658,141.586 102.654 C 141.968 102.649,142.844 102.462,143.533 102.238 C 146.264 101.348,152.570 101.167,158.693 101.802 M282.129 118.457 C 282.304 118.633,282.669 118.776,282.940 118.776 C 283.453 118.776,285.585 119.793,286.124 120.295 C 286.295 120.454,286.733 120.846,287.098 121.165 C 288.561 122.446,290.125 124.925,290.125 125.961 C 290.125 126.232,290.264 126.592,290.433 126.762 C 291.766 128.094,290.474 134.260,288.323 136.834 C 287.588 137.714,129.369 295.933,128.490 296.668 C 125.915 298.819,119.749 300.111,118.417 298.778 C 118.247 298.609,117.887 298.470,117.616 298.470 C 117.104 298.470,114.972 297.453,114.432 296.951 C 114.261 296.792,113.823 296.401,113.458 296.081 C 111.996 294.800,110.431 292.321,110.431 291.285 C 110.431 291.014,110.292 290.654,110.123 290.485 C 108.791 289.152,110.082 282.986,112.233 280.412 C 112.974 279.525,271.187 121.314,272.089 120.558 C 274.589 118.462,280.828 117.156,282.129 118.457 M151.460 124.620 C 151.154 124.750,150.216 124.866,149.374 124.878 C 148.533 124.890,147.486 125.086,147.047 125.315 C 146.609 125.543,146.017 125.730,145.730 125.730 C 143.478 125.730,135.188 132.417,135.188 134.234 C 135.188 134.415,135.000 134.719,134.771 134.910 C 134.541 135.100,134.353 135.437,134.353 135.659 C 134.353 135.881,134.166 136.250,133.936 136.479 C 133.707 136.709,133.519 137.175,133.519 137.516 C 133.519 137.857,133.404 138.255,133.263 138.401 C 132.019 139.687,132.019 149.882,133.263 151.168 C 133.404 151.314,133.524 151.689,133.531 152.003 C 133.537 152.316,133.850 153.074,134.224 153.686 C 134.599 154.298,134.991 154.986,135.095 155.216 C 136.186 157.618,140.067 161.219,143.212 162.746 C 145.154 163.689,145.313 163.752,147.603 164.491 C 151.626 165.788,157.885 164.882,162.372 162.353 C 166.346 160.112,171.349 154.149,171.349 151.651 C 171.349 151.378,171.481 151.022,171.643 150.861 C 172.797 149.707,172.797 139.862,171.643 138.708 C 171.481 138.547,171.349 138.191,171.349 137.918 C 171.349 135.887,166.876 130.043,163.839 128.107 C 161.676 126.729,159.660 125.730,159.041 125.730 C 158.681 125.730,158.245 125.588,158.071 125.415 C 157.898 125.241,156.694 125.003,155.395 124.884 C 154.097 124.766,152.805 124.605,152.526 124.526 C 152.246 124.448,151.766 124.490,151.460 124.620 M254.798 229.484 C 255.181 229.616,256.212 229.805,257.089 229.903 C 257.966 230.001,258.756 230.197,258.844 230.339 C 258.932 230.482,259.291 230.598,259.642 230.598 C 259.993 230.598,261.143 230.921,262.198 231.315 C 263.254 231.709,264.519 232.152,265.011 232.299 C 265.503 232.446,265.979 232.686,266.070 232.834 C 266.161 232.981,266.464 233.102,266.742 233.102 C 267.020 233.102,267.403 233.289,267.594 233.519 C 267.784 233.748,268.175 233.936,268.462 233.936 C 268.750 233.936,268.985 234.053,268.985 234.195 C 268.985 234.338,269.235 234.534,269.541 234.631 C 271.600 235.285,278.875 241.423,281.240 244.501 C 281.767 245.187,282.385 245.948,282.615 246.192 C 283.362 246.987,284.284 248.124,284.284 248.250 C 284.284 248.317,284.644 248.911,285.084 249.569 C 286.148 251.159,287.622 253.956,287.622 254.386 C 287.622 254.575,287.809 254.886,288.039 255.076 C 288.268 255.267,288.456 255.670,288.456 255.972 C 288.456 256.274,288.627 256.853,288.835 257.259 C 289.403 258.366,289.883 259.811,290.102 261.067 C 290.209 261.685,290.404 262.363,290.534 262.574 C 291.150 263.571,291.781 271.945,291.489 275.243 C 290.983 280.953,290.863 281.571,289.433 285.814 C 289.020 287.038,288.618 288.379,288.539 288.795 C 288.460 289.211,288.222 289.695,288.009 289.872 C 287.796 290.049,287.622 290.346,287.622 290.533 C 287.622 290.719,287.310 291.424,286.930 292.098 C 286.549 292.772,286.153 293.512,286.048 293.741 C 284.984 296.078,279.331 302.933,276.757 305.007 C 275.807 305.772,274.891 306.526,274.720 306.682 C 273.926 307.407,271.863 308.973,271.488 309.135 C 271.021 309.336,270.032 309.940,269.819 310.153 C 269.479 310.493,264.341 312.935,263.964 312.935 C 263.734 312.935,263.298 313.105,262.997 313.314 C 262.695 313.522,262.072 313.758,261.613 313.838 C 261.154 313.918,260.403 314.113,259.944 314.271 C 254.002 316.319,242.243 316.319,236.300 314.271 C 235.841 314.113,235.090 313.918,234.631 313.838 C 234.172 313.758,233.550 313.522,233.248 313.314 C 232.946 313.105,232.511 312.935,232.280 312.935 C 231.887 312.935,226.727 310.471,226.426 310.139 C 226.349 310.055,225.598 309.569,224.757 309.059 C 223.915 308.550,223.164 308.053,223.088 307.956 C 223.011 307.859,222.510 307.424,221.975 306.989 C 218.121 303.858,217.125 302.926,215.438 300.869 C 214.826 300.123,214.198 299.372,214.042 299.200 C 212.424 297.420,210.829 295.085,210.265 293.672 C 210.097 293.251,209.847 292.907,209.709 292.907 C 209.571 292.907,209.458 292.665,209.458 292.370 C 209.458 292.075,209.270 291.646,209.040 291.417 C 208.811 291.187,208.623 290.827,208.623 290.615 C 208.623 290.404,208.439 289.989,208.215 289.692 C 207.990 289.395,207.802 288.921,207.797 288.638 C 207.793 288.356,207.618 287.793,207.410 287.386 C 206.842 286.279,206.361 284.835,206.143 283.578 C 206.036 282.961,205.841 282.282,205.710 282.071 C 205.580 281.860,205.376 280.863,205.257 279.856 C 204.474 273.231,204.433 272.419,204.744 269.680 C 204.917 268.150,205.152 266.074,205.266 265.067 C 205.380 264.060,205.580 263.063,205.710 262.852 C 205.841 262.641,206.036 261.963,206.143 261.345 C 206.362 260.084,206.827 258.660,207.402 257.488 C 207.615 257.055,207.789 256.556,207.789 256.380 C 207.789 256.203,208.150 255.306,208.593 254.386 C 209.035 253.465,209.474 252.524,209.569 252.295 C 209.664 252.065,209.992 251.502,210.298 251.043 C 210.604 250.584,210.931 249.990,211.023 249.722 C 211.116 249.454,211.294 249.235,211.418 249.235 C 211.543 249.235,211.729 248.972,211.831 248.651 C 211.933 248.330,212.223 247.842,212.475 247.567 C 213.145 246.836,213.841 246.024,215.929 243.533 C 216.955 242.309,217.954 241.182,218.149 241.029 C 219.933 239.631,222.400 237.617,223.090 236.996 C 223.628 236.511,224.124 236.186,225.939 235.125 C 226.665 234.701,227.260 234.259,227.260 234.145 C 227.260 234.030,227.435 233.936,227.649 233.936 C 227.863 233.936,228.794 233.561,229.719 233.102 C 230.644 232.643,231.565 232.263,231.765 232.258 C 231.964 232.253,232.371 232.066,232.668 231.841 C 232.965 231.616,233.420 231.433,233.679 231.433 C 233.938 231.433,234.509 231.246,234.947 231.017 C 235.386 230.788,236.034 230.601,236.388 230.600 C 236.743 230.599,237.265 230.474,237.548 230.322 C 239.568 229.241,252.310 228.622,254.798 229.484 M243.672 252.722 C 243.136 252.929,242.477 253.105,242.208 253.114 C 241.938 253.122,241.500 253.241,241.234 253.378 C 240.968 253.514,240.438 253.762,240.056 253.928 C 235.296 255.998,229.207 262.545,229.207 265.595 C 229.207 265.868,229.075 266.224,228.914 266.385 C 227.760 267.539,227.760 277.384,228.914 278.538 C 229.075 278.700,229.207 279.055,229.207 279.328 C 229.207 281.346,233.722 287.267,236.673 289.120 C 238.968 290.561,240.898 291.516,241.515 291.516 C 241.875 291.516,242.311 291.657,242.484 291.830 C 242.752 292.098,247.129 292.719,248.401 292.670 C 250.257 292.598,253.499 292.092,253.757 291.834 C 253.932 291.659,254.361 291.516,254.711 291.516 C 257.076 291.516,265.369 284.899,265.369 283.012 C 265.369 282.831,265.556 282.527,265.786 282.337 C 266.015 282.146,266.203 281.809,266.203 281.587 C 266.203 281.366,266.391 280.996,266.620 280.767 C 266.850 280.537,267.038 280.071,267.038 279.730 C 267.038 279.389,267.153 278.991,267.293 278.846 C 268.538 277.559,268.538 267.364,267.293 266.078 C 267.153 265.933,267.032 265.557,267.025 265.243 C 267.019 264.930,266.707 264.172,266.332 263.561 C 265.957 262.949,265.565 262.260,265.461 262.031 C 264.371 259.628,260.489 256.027,257.344 254.500 C 253.745 252.753,252.588 252.487,248.261 252.410 C 245.753 252.366,244.347 252.461,243.672 252.722 " stroke="none" fill-rule="evenodd"></path><path id="path1" d="" stroke="none" fill-rule="evenodd"></path><path id="path2" d="" stroke="none" fill-rule="evenodd"></path><path id="path3" d="" stroke="none" fill-rule="evenodd"></path><path id="path4" d="" stroke="none" fill-rule="evenodd"></path></g></svg>
