<svg xmlns="http://www.w3.org/2000/svg" enable-background="new 0 0 48 48" viewBox="0 0 48 48"><path d="M14.4,30.7c0-2.5-2.1-4.6-4.6-4.6c-2.5,0-4.6,2.1-4.6,4.6c0,2.5,2.1,4.6,4.6,4.6C12.3,35.3,14.4,33.3,14.4,30.7z"/><path d="M18.9 41.3c-1.5-3.5-5.1-6-9.2-6-4.1 0-7.6 2.5-9.2 6-.4.8.2 1.7 1.1 1.7h16.1C18.7 43.1 19.3 42.2 18.9 41.3zM42.8 30.7c0-2.5-2.1-4.6-4.6-4.6-2.5 0-4.6 2.1-4.6 4.6 0 2.5 2.1 4.6 4.6 4.6C40.8 35.3 42.8 33.3 42.8 30.7z"/><path d="M47.4 41.3c-1.5-3.5-5.1-6-9.2-6s-7.6 2.5-9.2 6c-.4.8.2 1.7 1.1 1.7h16.1C47.2 43.1 47.8 42.2 47.4 41.3zM24 10.8c2.9 0 5.2-2.3 5.2-5.2 0-2.9-2.3-5.2-5.2-5.2-2.9 0-5.2 2.3-5.2 5.2C18.8 8.5 21.1 10.8 24 10.8zM13.7 17.6c-.4.9.3 2 1.3 2H33c1 0 1.7-1 1.3-2-1.7-4-5.7-6.8-10.3-6.8S15.4 13.6 13.7 17.6zM4.8 28.4c-.1-.7-.1-1.5-.1-2.2 0-8.2 5.2-15.5 12.9-18.2L16.9 6C8.4 9.1 2.7 17.1 2.7 26.2c0 .8 0 1.7.1 2.5L4.8 28.4zM16.4 43.9l-.8 1.8c2.7 1.1 5.5 1.7 8.4 1.7 2.8 0 5.5-.5 8-1.5l-.7-1.9C26.5 46 21.1 46 16.4 43.9zM43.3 26.2c0 .7 0 1.3-.1 2l2 .2c.1-.7.1-1.5.1-2.2 0-9.2-5.8-17.3-14.6-20.2l-.6 1.9C38 10.5 43.3 17.8 43.3 26.2z"/></svg>
